# xmcd
#
# Track frame offsets:
#	150
#	13777
#	22452
#	40002
#	50775
#	59412
#	72227
#	85825
#	99450
#	112242
#	126942
#	139587
#	151387
#	161125
#
# Disc length: 2298 seconds
#
# Revision: 1
# Processed by: cddbd v1.5.2PL0 Copyright (c) Steve Scherf et al.
# Submitted via: EasyCDDAExtractor 2011.0.0.0
#
DISCID=cb08f80e
DTITLE=한국 가요사 - 한국가요사 03
DYEAR=1994
DGENRE=Vocal
TTITLE0=고운봉 - 선창
TTITLE1=백난아 - 낭랑18세
TTITLE2=진방남 - 고향만리 사랑만리
TTITLE3=신카나리아 - 삼천리 강산 에라 좋구나
TTITLE4=백년설 - 복지만리
TTITLE5=백설희 - 고향초
TTITLE6=손인호 - 해운대 엘레지
TTITLE7=이인권 - 귀국선
TTITLE8=백난아 - 갈매기 쌍쌍
TTITLE9=최병호 - 아주까리 등불
TTITLE10=백난아 - 금박댕기
TTITLE11=전칠성 - 일자일루
TTITLE12=김부자 - 임전화풀이
TTITLE13=진방남 - 세세년년
EXTD=
EXTT0=
EXTT1=
EXTT2=
EXTT3=
EXTT4=
EXTT5=
EXTT6=
EXTT7=
EXTT8=
EXTT9=
EXTT10=
EXTT11=
EXTT12=
EXTT13=
PLAYORDER=
